<?xml version="1.0" standalone="no"?>
<!DOCTYPE svg PUBLIC "-//W3C//DTD SVG 20010904//EN"
 "http://www.w3.org/TR/2001/REC-SVG-20010904/DTD/svg10.dtd">
<svg version="1.0" xmlns="http://www.w3.org/2000/svg"
 width="1250.000000pt" height="1250.000000pt" viewBox="0 0 1250.000000 1250.000000"
 preserveAspectRatio="xMidYMid meet">
<metadata>
Created by potrace 1.16, written by Peter Selinger 2001-2019
</metadata>
<g transform="translate(0.000000,1250.000000) scale(0.100000,-0.100000)"
fill="#000000" stroke="none">
<path d="M0 6250 l0 -6250 6250 0 6250 0 0 6250 0 6250 -6250 0 -6250 0 0
-6250z m4426 3430 c284 -17 490 -63 669 -149 233 -112 336 -241 336 -421 0
-152 -56 -308 -180 -502 -20 -32 -38 -58 -41 -58 -3 0 -19 27 -37 59 -139 252
-392 469 -659 564 -161 58 -260 72 -499 72 -146 0 -244 -5 -290 -14 -459 -90
-822 -412 -932 -828 -22 -86 -26 -119 -27 -268 -1 -203 16 -300 74 -420 66
-136 205 -279 910 -931 537 -497 750 -729 958 -1040 210 -314 318 -605 329
-890 19 -459 -132 -905 -422 -1254 -273 -327 -666 -591 -1096 -734 -496 -165
-1139 -197 -1599 -81 -479 121 -866 412 -1005 757 -67 168 -90 394 -51 508 63
185 199 357 436 553 l105 87 11 -143 c32 -392 134 -662 344 -906 98 -115 271
-243 407 -302 92 -40 218 -79 328 -102 96 -19 140 -22 355 -22 262 0 326 8
499 60 396 118 757 411 902 731 79 173 106 412 65 569 -75 283 -317 631 -727
1046 -74 74 -289 279 -479 456 -453 421 -551 524 -727 760 -201 269 -320 521
-368 778 -24 123 -16 394 14 548 92 461 364 847 797 1132 358 236 797 366
1314 388 36 2 79 4 95 5 17 1 102 -3 191 -8z m5729 -11 c849 -64 1375 -378
1574 -941 60 -173 76 -285 76 -548 -1 -249 -8 -317 -60 -523 -133 -525 -492
-1011 -1060 -1433 -546 -406 -1175 -654 -1870 -738 -169 -21 -486 -34 -647
-28 -73 2 -128 1 -128 -5 0 -5 -90 -452 -200 -993 -229 -1123 -248 -1227 -257
-1365 -5 -82 -2 -114 15 -180 11 -44 23 -88 27 -97 6 -15 -8 -25 -81 -59 -328
-151 -710 -216 -836 -142 -59 34 -73 65 -72 156 2 112 29 258 294 1582 126
632 230 1157 230 1166 0 11 -17 20 -57 29 -279 61 -586 179 -752 288 -85 55
-184 159 -219 229 -52 103 -58 202 -22 364 l13 56 111 -81 c251 -183 530 -320
857 -421 58 -18 116 -35 129 -37 24 -3 24 -1 191 832 180 901 199 1012 199
1148 0 102 -17 167 -60 236 -17 26 -30 50 -28 51 10 9 275 100 392 134 446
132 606 89 641 -170 8 -64 -4 -132 -171 -979 -80 -404 -171 -868 -203 -1030
l-58 -295 126 -3 c142 -3 394 18 581 49 1074 179 1878 843 2049 1695 67 336
48 649 -53 868 -135 293 -427 525 -794 632 -207 60 -291 69 -632 69 -332 0
-449 -8 -696 -50 -934 -160 -1707 -631 -2344 -1428 -58 -73 -112 -143 -121
-157 l-16 -24 -22 59 c-76 201 -94 380 -53 528 105 376 513 730 1208 1051 865
400 1847 577 2799 505z"/>
</g>
</svg>
